<?xml version="1.0" encoding="UTF-8" standalone="no"?>
<!-- Created with Inkscape (http://www.inkscape.org/) -->

<svg
   xmlns:dc="http://purl.org/dc/elements/1.1/"
   xmlns:cc="http://creativecommons.org/ns#"
   xmlns:rdf="http://www.w3.org/1999/02/22-rdf-syntax-ns#"
   xmlns:svg="http://www.w3.org/2000/svg"
   xmlns="http://www.w3.org/2000/svg"
   xmlns:sodipodi="http://sodipodi.sourceforge.net/DTD/sodipodi-0.dtd"
   xmlns:inkscape="http://www.inkscape.org/namespaces/inkscape"
   id="svg3336"
   version="1.1"
   inkscape:version="0.92.4 (5da689c313, 2019-01-14)"
   xml:space="preserve"
   width="144"
   height="144"
   viewBox="0 0 144 144"
   sodipodi:docname="inaxium_144.svg"><metadata
     id="metadata3342"><rdf:RDF><cc:Work
         rdf:about=""><dc:format>image/svg+xml</dc:format><dc:type
           rdf:resource="http://purl.org/dc/dcmitype/StillImage" /><dc:title></dc:title></cc:Work></rdf:RDF></metadata><defs
     id="defs3340"><clipPath
       clipPathUnits="userSpaceOnUse"
       id="clipPath3354"><path
         d="M 0,257.768 H 436.394 V 0 H 0 Z"
         id="path3356"
         inkscape:connector-curvature="0" /></clipPath></defs><sodipodi:namedview
     pagecolor="#ffffff"
     bordercolor="#666666"
     borderopacity="1"
     objecttolerance="10"
     gridtolerance="10"
     guidetolerance="10"
     inkscape:pageopacity="0"
     inkscape:pageshadow="2"
     inkscape:window-width="3840"
     inkscape:window-height="2066"
     id="namedview3338"
     showgrid="false"
     inkscape:zoom="3.7491078"
     inkscape:cx="355.16586"
     inkscape:cy="161.105"
     inkscape:window-x="-11"
     inkscape:window-y="-11"
     inkscape:window-maximized="1"
     inkscape:current-layer="g3344" /><g
     id="g3344"
     inkscape:groupmode="layer"
     inkscape:label="inaxium js"
     transform="matrix(1.25,0,0,-1.25,0,143.99961)"><g
       id="g3871"
       transform="matrix(0.59355255,0,0,1.4403785,-60.198437,-147.01027)"><g
         transform="translate(112.8389,150.8721)"
         id="g3346"><path
           inkscape:connector-curvature="0"
           id="path3348"
           style="fill:#373535;fill-opacity:1;fill-rule:nonzero;stroke:none"
           d="M 0,0 V -24.488 H -6.104 L -6.122,0 Z" /></g><g
         transform="translate(121.5847,126.3841)"
         id="g3358"><path
           inkscape:connector-curvature="0"
           id="path3360"
           style="fill:#373535;fill-opacity:1;fill-rule:nonzero;stroke:none"
           d="M 0,0 H -6.104 L -6.122,24.488 H 6.996 c 6.997,0 10.495,-4.082 10.495,-12.244 V 0 h -6.122 v 12.244 c 0,5.83 -2.04,8.746 -6.122,8.746 L 0,20.99 Z" /></g><g
         transform="translate(159.1918,136.8787)"
         id="g3362"><path
           inkscape:connector-curvature="0"
           id="path3364"
           style="fill:#373535;fill-opacity:1;fill-rule:nonzero;stroke:none"
           d="m 0,0 v 10.495 h -5.248 c -4.081,0 -6.122,-2.915 -6.122,-8.746 V 0 Z m -11.37,-3.498 v -6.997 h -6.122 V 1.749 c 0,8.163 3.498,12.244 10.494,12.244 H 6.122 V -10.495 H 0 v 6.997 z" /></g><g
         transform="translate(226.5329,150.8721)"
         id="g3366"><path
           inkscape:connector-curvature="0"
           id="path3368"
           style="fill:#373535;fill-opacity:1;fill-rule:nonzero;stroke:none"
           d="M 0,0 V -24.488 H -6.104 L -6.122,0 Z" /></g><g
         transform="translate(247.5228,150.8546)"
         id="g3370"><path
           inkscape:connector-curvature="0"
           id="path3372"
           style="fill:#373535;fill-opacity:1;fill-rule:nonzero;stroke:none"
           d="M 0,0 6.122,0.018 6.14,-12.226 c 0,-8.163 -3.498,-12.244 -10.495,-12.244 h -3.499 c -6.996,0 -10.5,4.081 -10.512,12.244 V 0.035 l 6.122,-0.017 v -12.244 h 0.018 c 0,-5.831 2.041,-8.746 6.122,-8.746 4.081,0 6.122,2.915 6.122,8.746 z" /></g><g
         transform="translate(279.8819,150.8721)"
         id="g3374"><path
           inkscape:connector-curvature="0"
           id="path3376"
           style="fill:#373535;fill-opacity:1;fill-rule:nonzero;stroke:none"
           d="M 0,0 C 6.996,0 10.495,-4.082 10.495,-12.244 V -24.488 H 4.373 v 12.244 c 0,5.83 -2.041,8.746 -6.122,8.746 h -1.749 v -20.99 h -6.105 l -0.017,20.99 h -7.872 v -20.99 h -6.104 L -23.613,0 Z" /></g><g
         transform="translate(151.307,105.1762)"
         id="g3378"><path
           inkscape:connector-curvature="0"
           id="path3380"
           style="fill:#373535;fill-opacity:1;fill-rule:nonzero;stroke:none"
           d="M 0,0 V 0 L 26.538,34.553 14.144,57.652 H 40.297 L 45.35,47.089 67.38,69.373 43.726,39.651 37.352,52.978 H 21.957 L 32.414,33.489 Z" /></g><g
         transform="translate(218.7872,109.5214)"
         id="g3382"><path
           inkscape:connector-curvature="0"
           id="path3384"
           style="fill:#373535;fill-opacity:1;fill-rule:nonzero;stroke:none"
           d="m 0,0 h -24.377 l -5.494,10.823 -18.232,-15.168 19.624,22.751 6.971,-13.732 H -7.453 L -18.047,26.579 22.809,69.708 -12.258,25.345 Z" /></g></g></g></svg>